# This file uses centimeters as units for non-parametric coordinates.

v -1.915233 -1.915233 1.915233
v 1.915233 -1.915233 1.915233
v -1.915233 -1.317387 1.915233
v 1.915233 -1.317387 1.915233
v -1.915233 -1.317387 -1.915233
v 1.915233 -1.317387 -1.915233
v -1.915233 -1.915233 -1.915233
v 1.915233 -1.915233 -1.915233
v -0.702252 -1.317387 0.702252
v 0.702252 -1.317387 0.702252
v 0.702252 -1.317387 -0.702252
v -0.702252 -1.317387 -0.702252
v -0.702252 4.582945 0.702252
v 0.702252 4.582945 0.702252
v 0.702252 4.582945 -0.702252
v -0.702252 4.582945 -0.702252
v -1.849264 4.582945 1.849264
v 1.849264 4.582945 1.849264
v 1.849264 4.582945 -1.849264
v -1.849264 4.582945 -1.849264
v -1.849264 6.431920 1.849264
v 1.849264 6.431920 1.849264
v 1.849264 6.431920 -1.849264
v -1.849264 6.431920 -1.849264
v -1.294485 6.431920 1.294485
v 1.294485 6.431920 1.294485
v 1.294485 6.431920 -1.294485
v -1.294485 6.431920 -1.294485
v -1.294485 5.250674 1.294485
v 1.294485 5.250674 1.294485
v 1.294485 5.250674 -1.294485
v -1.294485 5.250674 -1.294485
vt 0.375000 0.000000
vt 0.625000 0.000000
vt 0.375000 0.250000
vt 0.625000 0.250000
vt 0.375000 0.500000
vt 0.625000 0.500000
vt 0.375000 0.750000
vt 0.625000 0.750000
vt 0.375000 1.000000
vt 0.625000 1.000000
vt 0.875000 0.000000
vt 0.875000 0.250000
vt 0.125000 0.000000
vt 0.125000 0.250000
vt 0.375000 0.250000
vt 0.625000 0.250000
vt 0.625000 0.500000
vt 0.375000 0.500000
vt 0.375000 0.250000
vt 0.625000 0.250000
vt 0.625000 0.500000
vt 0.375000 0.500000
vt 0.375000 0.250000
vt 0.625000 0.250000
vt 0.625000 0.500000
vt 0.375000 0.500000
vt 0.375000 0.250000
vt 0.625000 0.250000
vt 0.625000 0.500000
vt 0.375000 0.500000
vt 0.375000 0.250000
vt 0.625000 0.250000
vt 0.625000 0.500000
vt 0.375000 0.500000
vt 0.375000 0.250000
vt 0.625000 0.250000
vt 0.625000 0.500000
vt 0.375000 0.500000
vn 0.000000 0.000000 1.000000
vn 0.000000 0.000000 1.000000
vn 0.000000 0.000000 1.000000
vn 0.000000 0.000000 1.000000
vn 0.000000 1.000000 0.000000
vn 0.000000 1.000000 0.000000
vn 0.000000 1.000000 0.000000
vn 0.000000 1.000000 0.000000
vn 0.000000 0.000000 -1.000000
vn 0.000000 0.000000 -1.000000
vn 0.000000 0.000000 -1.000000
vn 0.000000 0.000000 -1.000000
vn 0.000000 -1.000000 0.000000
vn 0.000000 -1.000000 0.000000
vn 0.000000 -1.000000 0.000000
vn 0.000000 -1.000000 0.000000
vn 1.000000 0.000000 0.000000
vn 1.000000 0.000000 0.000000
vn 1.000000 0.000000 0.000000
vn 1.000000 0.000000 0.000000
vn -1.000000 0.000000 0.000000
vn -1.000000 0.000000 0.000000
vn -1.000000 0.000000 0.000000
vn -1.000000 0.000000 0.000000
vn 0.000000 1.000000 -0.000000
vn 0.000000 1.000000 -0.000000
vn 0.000000 1.000000 -0.000000
vn 0.000000 1.000000 -0.000000
vn 0.000000 1.000000 0.000000
vn 0.000000 1.000000 0.000000
vn 0.000000 1.000000 0.000000
vn 0.000000 1.000000 0.000000
vn 0.000000 0.000000 1.000000
vn 0.000000 0.000000 1.000000
vn 0.000000 0.000000 1.000000
vn 0.000000 0.000000 1.000000
vn 1.000000 0.000000 0.000000
vn 1.000000 0.000000 0.000000
vn 1.000000 0.000000 0.000000
vn 1.000000 0.000000 0.000000
vn 0.000000 0.000000 -1.000000
vn 0.000000 0.000000 -1.000000
vn 0.000000 0.000000 -1.000000
vn 0.000000 0.000000 -1.000000
vn -1.000000 0.000000 0.000000
vn -1.000000 0.000000 0.000000
vn -1.000000 0.000000 0.000000
vn -1.000000 0.000000 0.000000
vn 0.000000 -1.000000 0.000000
vn 0.000000 -1.000000 0.000000
vn 0.000000 -1.000000 0.000000
vn 0.000000 -1.000000 0.000000
vn 0.000000 -1.000000 0.000000
vn 0.000000 -1.000000 0.000000
vn 0.000000 -1.000000 0.000000
vn 0.000000 -1.000000 0.000000
vn 0.000000 0.000000 1.000000
vn 0.000000 0.000000 1.000000
vn 0.000000 0.000000 1.000000
vn 0.000000 0.000000 1.000000
vn 1.000000 0.000000 0.000000
vn 1.000000 0.000000 0.000000
vn 1.000000 0.000000 0.000000
vn 1.000000 0.000000 0.000000
vn 0.000000 0.000000 -1.000000
vn 0.000000 0.000000 -1.000000
vn 0.000000 0.000000 -1.000000
vn 0.000000 0.000000 -1.000000
vn -1.000000 0.000000 0.000000
vn -1.000000 0.000000 0.000000
vn -1.000000 0.000000 0.000000
vn -1.000000 0.000000 0.000000
vn 0.000000 1.000000 0.000000
vn 0.000000 1.000000 0.000000
vn 0.000000 1.000000 0.000000
vn 0.000000 1.000000 0.000000
vn 0.000000 1.000000 0.000000
vn 0.000000 1.000000 0.000000
vn 0.000000 1.000000 0.000000
vn 0.000000 1.000000 0.000000
vn 0.000000 0.000000 -1.000000
vn 0.000000 0.000000 -1.000000
vn 0.000000 0.000000 -1.000000
vn 0.000000 0.000000 -1.000000
vn -1.000000 0.000000 0.000000
vn -1.000000 0.000000 0.000000
vn -1.000000 0.000000 0.000000
vn -1.000000 0.000000 0.000000
vn 0.000000 0.000000 1.000000
vn 0.000000 0.000000 1.000000
vn 0.000000 0.000000 1.000000
vn 0.000000 0.000000 1.000000
vn 1.000000 0.000000 0.000000
vn 1.000000 0.000000 0.000000
vn 1.000000 0.000000 0.000000
vn 1.000000 0.000000 0.000000
f 1/1/1 2/2/2 4/4/3 3/3/4
f 29/35/5 30/36/6 31/37/7 32/38/8
f 5/5/9 6/6/10 8/8/11 7/7/12
f 7/7/13 8/8/14 2/10/15 1/9/16
f 2/2/17 8/11/18 6/12/19 4/4/20
f 7/13/21 1/1/22 3/3/23 5/14/24
f 3/3/25 4/4/26 10/16/27 9/15/28
f 4/4/26 6/6/29 11/17/30 10/16/27
f 6/6/29 5/5/31 12/18/32 11/17/30
f 5/5/31 3/3/25 9/15/28 12/18/32
f 9/15/33 10/16/34 14/20/35 13/19/36
f 10/16/37 11/17/38 15/21/39 14/20/40
f 11/17/41 12/18/42 16/22/43 15/21/44
f 12/18/45 9/15/46 13/19/47 16/22/48
f 13/19/49 14/20/50 18/24/51 17/23/52
f 14/20/50 15/21/53 19/25/54 18/24/51
f 15/21/53 16/22/55 20/26/56 19/25/54
f 16/22/55 13/19/49 17/23/52 20/26/56
f 17/23/57 18/24/58 22/28/59 21/27/60
f 18/24/61 19/25/62 23/29/63 22/28/64
f 19/25/65 20/26/66 24/30/67 23/29/68
f 20/26/69 17/23/70 21/27/71 24/30/72
f 21/27/73 22/28/74 26/32/75 25/31/76
f 22/28/74 23/29/77 27/33/78 26/32/75
f 23/29/77 24/30/79 28/34/80 27/33/78
f 24/30/79 21/27/73 25/31/76 28/34/80
f 25/31/81 26/32/82 30/36/83 29/35/84
f 26/32/85 27/33/86 31/37/87 30/36/88
f 27/33/89 28/34/90 32/38/91 31/37/92
f 28/34/93 25/31/94 29/35/95 32/38/96
